<svg xmlns="http://www.w3.org/2000/svg" xmlns:xlink="http://www.w3.org/1999/xlink" width="675" viewBox="0 0 675 150" height="150" version="1.0"><defs><g id="a"><path d="M 83.8125 -69.859375 C 83.8125 -61.460938 81.242188 -54.722656 76.109375 -49.640625 C 70.984375 -44.554688 64.320312 -42.015625 56.125 -42.015625 L 24.96875 -42.015625 L 24.96875 0 L 12.296875 0 L 12.296875 -99.0625 L 53.265625 -99.0625 C 63.023438 -99.0625 70.554688 -96.53125 75.859375 -91.46875 C 81.160156 -86.414062 83.8125 -79.210938 83.8125 -69.859375 Z M 24.96875 -53.03125 L 51.296875 -53.03125 C 57.335938 -53.03125 62.066406 -54.578125 65.484375 -57.671875 C 68.898438 -60.765625 70.609375 -65.023438 70.609375 -70.453125 C 70.609375 -75.890625 68.898438 -80.140625 65.484375 -83.203125 C 62.066406 -86.273438 57.335938 -87.8125 51.296875 -87.8125 L 24.96875 -87.8125 Z M 24.96875 -53.03125"/></g><g id="b"><path d="M 20.375 -99.0625 L 20.375 -84.71875 L 8.984375 -84.71875 L 8.984375 -99.0625 Z M 20.4375 -71.140625 L 20.4375 0 L 9.125 0 L 9.125 -71.140625 Z M 20.4375 -71.140625"/></g><g id="c"><path d="M 9.5 -71.140625 L 19.921875 -71.140625 L 19.921875 -59.21875 C 23.085938 -64.195312 26.492188 -67.765625 30.140625 -69.921875 C 33.785156 -72.085938 38.273438 -73.171875 43.609375 -73.171875 C 50.441406 -73.171875 55.894531 -71.410156 59.96875 -67.890625 C 64.050781 -64.378906 66.09375 -59.679688 66.09375 -53.796875 L 66.09375 0 L 54.84375 0 L 54.84375 -49.265625 C 54.84375 -53.585938 53.519531 -57.003906 50.875 -59.515625 C 48.238281 -62.035156 44.6875 -63.296875 40.21875 -63.296875 C 34.375 -63.296875 29.691406 -61.109375 26.171875 -56.734375 C 22.648438 -52.359375 20.890625 -46.550781 20.890625 -39.3125 L 20.890625 0 L 9.5 0 Z M 9.5 -71.140625"/></g><g id="d"><path d="M 9.5 -71.140625 L 19.921875 -71.140625 L 19.921875 -61.109375 C 23.035156 -65.429688 26.273438 -68.519531 29.640625 -70.375 C 33.015625 -72.238281 37.066406 -73.171875 41.796875 -73.171875 C 46.421875 -73.171875 50.242188 -72.300781 53.265625 -70.5625 C 56.285156 -68.832031 58.875 -66.082031 61.03125 -62.3125 C 64.300781 -66.332031 67.570312 -69.144531 70.84375 -70.75 C 74.113281 -72.363281 78.113281 -73.171875 82.84375 -73.171875 C 89.476562 -73.171875 94.578125 -71.460938 98.140625 -68.046875 C 101.710938 -64.628906 103.5 -59.75 103.5 -53.40625 L 103.5 0 L 92.046875 0 L 92.046875 -49.03125 C 92.046875 -53.507812 90.882812 -57.003906 88.5625 -59.515625 C 86.25 -62.035156 83.03125 -63.296875 78.90625 -63.296875 C 74.28125 -63.296875 70.332031 -61.484375 67.0625 -57.859375 C 63.800781 -54.242188 62.171875 -49.867188 62.171875 -44.734375 L 62.171875 0 L 50.765625 0 L 50.765625 -49.03125 C 50.765625 -53.5625 49.617188 -57.070312 47.328125 -59.5625 C 45.046875 -62.050781 41.816406 -63.296875 37.640625 -63.296875 C 33.015625 -63.296875 29.066406 -61.484375 25.796875 -57.859375 C 22.523438 -54.242188 20.890625 -49.867188 20.890625 -44.734375 L 20.890625 0 L 9.5 0 Z M 9.5 -71.140625"/></g><g id="e"><path d="M 8.90625 -50.171875 C 9 -53.835938 9.660156 -57.078125 10.890625 -59.890625 C 12.128906 -62.710938 13.65625 -64.941406 15.46875 -66.578125 C 17.28125 -68.210938 19.46875 -69.546875 22.03125 -70.578125 C 24.59375 -71.609375 27.082031 -72.296875 29.5 -72.640625 C 31.914062 -72.992188 34.503906 -73.171875 37.265625 -73.171875 C 46.066406 -73.171875 52.742188 -71.523438 57.296875 -68.234375 C 61.847656 -64.941406 64.125 -60.128906 64.125 -53.796875 L 64.125 -11.921875 C 64.125 -10.160156 64.648438 -8.789062 65.703125 -7.8125 C 66.765625 -6.832031 68.273438 -6.34375 70.234375 -6.34375 C 71.035156 -6.34375 71.816406 -6.46875 72.578125 -6.71875 L 72.578125 1.890625 C 69.609375 2.691406 67.039062 3.09375 64.875 3.09375 C 61.207031 3.09375 58.453125 2.25 56.609375 0.5625 C 54.773438 -1.125 53.660156 -3.75 53.265625 -7.3125 C 49.285156 -3.644531 45.375 -0.992188 41.53125 0.640625 C 37.6875 2.273438 33.523438 3.09375 29.046875 3.09375 C 21.847656 3.09375 16.160156 1.207031 11.984375 -2.5625 C 7.816406 -6.332031 5.734375 -11.460938 5.734375 -17.953125 C 5.734375 -25.898438 8.5 -31.535156 14.03125 -34.859375 C 17.851562 -37.171875 24.367188 -38.976562 33.578125 -40.28125 C 34.878906 -40.4375 37.367188 -40.765625 41.046875 -41.265625 C 45.515625 -41.816406 48.601562 -42.671875 50.3125 -43.828125 C 52.03125 -44.984375 52.890625 -46.769531 52.890625 -49.1875 L 52.890625 -52.125 C 52.890625 -55.5 51.503906 -58.113281 48.734375 -59.96875 C 45.972656 -61.832031 42.050781 -62.765625 36.96875 -62.765625 C 31.632812 -62.765625 27.632812 -61.742188 24.96875 -59.703125 C 22.300781 -57.671875 20.742188 -54.492188 20.296875 -50.171875 Z M 31.53125 -6.796875 C 37.769531 -6.796875 42.890625 -8.453125 46.890625 -11.765625 C 50.890625 -15.085938 52.890625 -18.660156 52.890625 -22.484375 L 52.890625 -35.15625 C 50.921875 -34.25 48.238281 -33.503906 44.84375 -32.921875 C 41.457031 -32.347656 38.289062 -31.832031 35.34375 -31.375 C 32.40625 -30.925781 29.539062 -30.285156 26.75 -29.453125 C 23.957031 -28.628906 21.726562 -27.285156 20.0625 -25.421875 C 18.40625 -23.566406 17.578125 -21.15625 17.578125 -18.1875 C 17.578125 -14.613281 18.796875 -11.820312 21.234375 -9.8125 C 23.671875 -7.800781 27.101562 -6.796875 31.53125 -6.796875 Z M 31.53125 -6.796875"/></g><g id="f"><path d="M 7.3125 29.578125 L 7.3125 -71.140625 L 17.734375 -71.140625 L 17.734375 -60.5 C 23.160156 -68.945312 30.726562 -73.171875 40.4375 -73.171875 C 49.894531 -73.171875 57.347656 -69.703125 62.796875 -62.765625 C 68.253906 -55.828125 70.984375 -46.375 70.984375 -34.40625 C 70.984375 -23.039062 68.203125 -13.945312 62.640625 -7.125 C 57.085938 -0.3125 49.738281 3.09375 40.59375 3.09375 C 35.957031 3.09375 31.90625 2.25 28.4375 0.5625 C 24.96875 -1.125 21.722656 -3.773438 18.703125 -7.390625 L 18.703125 29.578125 Z M 38.546875 -62.625 C 32.566406 -62.625 27.765625 -60.109375 24.140625 -55.078125 C 20.515625 -50.046875 18.703125 -43.351562 18.703125 -35 C 18.703125 -26.65625 20.515625 -19.96875 24.140625 -14.9375 C 27.765625 -9.90625 32.566406 -7.390625 38.546875 -7.390625 C 44.679688 -7.390625 49.660156 -9.90625 53.484375 -14.9375 C 57.304688 -19.96875 59.21875 -26.503906 59.21875 -34.546875 C 59.21875 -43.046875 57.34375 -49.847656 53.59375 -54.953125 C 49.851562 -60.066406 44.835938 -62.625 38.546875 -62.625 Z M 38.546875 -62.625"/></g><g id="g"><path d="M 69.703125 -31.765625 L 17.203125 -31.765625 C 17.304688 -28.191406 17.617188 -25.269531 18.140625 -23 C 18.671875 -20.738281 19.613281 -18.601562 20.96875 -16.59375 C 24.894531 -10.40625 30.628906 -7.3125 38.171875 -7.3125 C 47.328125 -7.3125 53.515625 -12.066406 56.734375 -21.578125 L 68.203125 -21.578125 C 66.742188 -13.878906 63.332031 -7.84375 57.96875 -3.46875 C 52.613281 0.90625 45.863281 3.09375 37.71875 3.09375 C 27.707031 3.09375 19.820312 -0.257812 14.0625 -6.96875 C 8.3125 -13.6875 5.4375 -22.878906 5.4375 -34.546875 C 5.4375 -46.265625 8.390625 -55.628906 14.296875 -62.640625 C 20.203125 -69.660156 28.109375 -73.171875 38.015625 -73.171875 C 44.660156 -73.171875 50.535156 -71.507812 55.640625 -68.1875 C 60.742188 -64.875 64.476562 -60.300781 66.84375 -54.46875 C 68.75 -49.34375 69.703125 -41.773438 69.703125 -31.765625 Z M 17.578125 -41.046875 L 57.40625 -41.046875 C 57.507812 -41.191406 57.5625 -41.441406 57.5625 -41.796875 C 57.5625 -47.679688 55.675781 -52.644531 51.90625 -56.6875 C 48.132812 -60.738281 43.457031 -62.765625 37.875 -62.765625 C 32.132812 -62.765625 27.425781 -60.789062 23.75 -56.84375 C 20.082031 -52.894531 18.023438 -47.628906 17.578125 -41.046875 Z M 17.578125 -41.046875"/></g><g id="h"><path d="M 43.609375 -61.1875 C 39.878906 -61.132812 36.734375 -60.769531 34.171875 -60.09375 C 31.609375 -59.414062 29.257812 -58.21875 27.125 -56.5 C 24.988281 -54.789062 23.40625 -52.3125 22.375 -49.0625 C 21.34375 -45.820312 20.828125 -41.789062 20.828125 -36.96875 L 20.828125 0 L 9.4375 0 L 9.4375 -71.140625 L 19.84375 -71.140625 L 19.84375 -58.3125 C 23.113281 -63.59375 26.242188 -67.390625 29.234375 -69.703125 C 32.222656 -72.015625 35.582031 -73.171875 39.3125 -73.171875 C 40.007812 -73.171875 41.441406 -73.046875 43.609375 -72.796875 Z M 43.609375 -61.1875"/></g></defs><g fill="#FC5B62"><use x="2.039" y="126.945" xmlns:xlink="http://www.w3.org/1999/xlink" xlink:href="#a" xlink:type="simple" xlink:actuate="onLoad" xlink:show="embed"/></g><g fill="#FC5B62"><use x="92.563" y="126.945" xmlns:xlink="http://www.w3.org/1999/xlink" xlink:href="#b" xlink:type="simple" xlink:actuate="onLoad" xlink:show="embed"/></g><g fill="#FC5B62"><use x="122.662" y="126.945" xmlns:xlink="http://www.w3.org/1999/xlink" xlink:href="#c" xlink:type="simple" xlink:actuate="onLoad" xlink:show="embed"/></g><g fill="#FC5B62"><use x="198.098" y="126.945" xmlns:xlink="http://www.w3.org/1999/xlink" xlink:href="#d" xlink:type="simple" xlink:actuate="onLoad" xlink:show="embed"/></g><g fill="#FC5B62"><use x="311.101" y="126.945" xmlns:xlink="http://www.w3.org/1999/xlink" xlink:href="#e" xlink:type="simple" xlink:actuate="onLoad" xlink:show="embed"/></g><g fill="#FC5B62"><use x="386.538" y="126.945" xmlns:xlink="http://www.w3.org/1999/xlink" xlink:href="#f" xlink:type="simple" xlink:actuate="onLoad" xlink:show="embed"/></g><g fill="#FC5B62"><use x="461.974" y="126.945" xmlns:xlink="http://www.w3.org/1999/xlink" xlink:href="#f" xlink:type="simple" xlink:actuate="onLoad" xlink:show="embed"/></g><g fill="#FC5B62"><use x="537.41" y="126.945" xmlns:xlink="http://www.w3.org/1999/xlink" xlink:href="#g" xlink:type="simple" xlink:actuate="onLoad" xlink:show="embed"/></g><g fill="#FC5B62"><use x="612.846" y="126.945" xmlns:xlink="http://www.w3.org/1999/xlink" xlink:href="#h" xlink:type="simple" xlink:actuate="onLoad" xlink:show="embed"/></g></svg>